<svg width="546" height="300" viewBox="0 0 546 300" fill="none" xmlns="http://www.w3.org/2000/svg">
<g id="Untitled-1">
<g id="Group" opacity="0.2">
<path id="Path" d="M3.52026 225.843C12.5005 248.746 34.1681 257.166 55.6129 264.975C68.6523 269.724 77.4817 274.509 88.5238 283.008C96.1615 289.02 104.163 294.555 112.483 299.582C116.465 301.949 120.568 304.108 124.775 306.047C146.472 306.241 170.273 306.385 195.547 306.478C197.773 305.905 200.03 305.461 202.307 305.149C216 303.317 230.477 304.215 244.234 304.812C271.197 305.983 297.592 307.836 324.381 303.59C365.159 297.125 404.026 302.592 444.746 304.905C460.091 305.774 477.075 304.963 492.621 301.112C520.23 294.294 543.507 277.943 545.856 244.515C547.142 226.303 539.664 209.017 527.321 195.87C512.378 179.957 492.341 174.634 473.605 164.691C456.988 155.876 446.642 139.639 441.139 122.053C435.083 102.655 440.529 72.266 419.536 60.4551C406.26 52.9907 388.594 59.9451 375.892 65.4841C352.4 75.7934 327.133 83.617 301.543 76.7633C287.253 72.9413 275.486 63.0127 261.857 57.5958C255.068 54.8946 247.719 53.0267 240.398 54.5066C228.293 56.9492 219.959 72.3019 208.026 58.3645C200.533 49.6142 198.528 38.0188 191.438 29.0098C177.867 11.7677 154.655 4.98584 133.748 11.2289C117.44 16.0998 108.438 29.2541 99.839 42.94C89.5943 59.2338 78.3941 70.5346 60.6922 78.9976C37.5734 90.0397 -3.05328 92.6476 3.52026 128.238C6.39392 143.634 14.4619 153.871 9.5119 170.129C3.55621 189.67 -4.62665 205.088 3.52026 225.843Z" fill="#222A54" fill-opacity="0.249071"/>
</g>
<g id="&#208;&#186;&#209;&#128;&#209;&#150;&#209;&#129;&#208;&#187;&#208;&#190;">
<path id="Path_2" d="M259.357 227.603C259.357 227.603 272.289 273.022 278.166 293.317C279.854 299.158 280.967 302.915 281.039 302.915H284.279L266.168 223.767L262.023 223.048L261.663 223.666L259.357 227.603Z" fill="#E6DEF0"/>
<path id="Path_3" d="M259.357 227.603C259.357 227.603 272.289 273.022 278.166 293.317L262.231 223.767L261.62 223.659L259.357 227.603Z" fill="#9B959E"/>
<path id="Path_4" d="M216.338 227.603C216.338 227.603 203.407 273.022 197.53 293.317C195.835 299.158 194.728 302.915 194.656 302.915H191.416L209.556 223.767L213.694 223.048L214.054 223.666L216.338 227.603Z" fill="#E6DEF0"/>
<path id="Path_5" d="M216.338 227.603C216.338 227.603 203.407 273.022 197.53 293.317L213.443 223.767L214.054 223.659L216.338 227.603Z" fill="#9B959E"/>
<path id="Oval" d="M238.444 232.237C211.094 232.237 188.923 210.066 188.923 182.716C188.923 155.367 211.094 133.195 238.444 133.195C265.794 133.195 287.965 155.367 287.965 182.716C287.965 210.066 265.794 232.237 238.444 232.237Z" fill="#FBD168"/>
<path id="Oval_2" d="M238.329 224.772C216.3 224.772 198.442 206.622 198.442 184.232C198.442 161.842 216.3 143.691 238.329 143.691C260.358 143.691 278.216 161.842 278.216 184.232C278.216 206.622 260.358 224.772 238.329 224.772Z" fill="#F18634"/>
<path id="Oval_3" d="M237.251 224.772C221.67 224.772 209.039 206.622 209.039 184.232C209.039 161.842 221.67 143.691 237.251 143.691C252.833 143.691 265.464 161.842 265.464 184.232C265.464 206.622 252.833 224.772 237.251 224.772Z" fill="#E26F0D"/>
<path id="Path_6" d="M209.628 298.411H222.351L223.07 290.824L224.507 281.923H215.799L216.604 288.202C216.822 289.915 216.68 291.655 216.187 293.31C215.959 294.031 215.212 294.451 214.477 294.273L213.314 293.978L209.628 298.411Z" fill="#FBCAA4"/>
<path id="Path_7" d="M224.579 300.149H202.602C201.884 300.149 202.372 298.892 202.516 298.583C204.104 295.041 208.795 292.275 213.342 293.985C214.506 294.897 213.694 296.808 214.161 298.231L224.6 298.468L224.579 300.149Z" fill="#12100B"/>
<path id="Path_8" d="M183.621 236.792L179.95 224.578L187.005 221.705L195.13 217.797L197.573 226.137L191.351 227.172C189.646 227.453 188.018 228.089 186.574 229.04C185.951 229.465 185.763 230.299 186.143 230.951L186.761 231.978L183.621 236.792Z" fill="#FBCAA4"/>
<path id="Path_9" d="M177.644 222.976L183.98 244.033C184.196 244.752 185.252 243.89 185.511 243.667C188.442 241.124 189.742 235.843 186.797 231.978C185.59 231.123 183.988 232.452 182.486 232.416L179.253 222.488L177.644 222.976Z" fill="#12100B"/>
<g id="&#208;&#189;&#208;&#190;&#208;&#179;&#208;&#184;">
<path id="Path_10" d="M250.736 172.981L241.454 200.353L229.176 202.767L229.406 168.592L250.736 172.981Z" fill="white"/>
<path id="Path_11" d="M234.816 178.168L234.493 202.279H213.967C213.772 192.953 214.566 183.633 216.338 174.476L234.816 178.168Z" fill="#48A1DA"/>
<path id="Path_12" d="M214.054 203.96H227.273C229.376 203.958 231.466 203.624 233.465 202.968C241.828 200.217 264.767 192.767 264.911 192.76C267.626 192.645 269.336 194.448 270.435 195.906C273.481 199.958 270.17 205.246 267.698 208.629C264.824 212.559 261.893 216.877 257.899 219.758C253.042 223.264 246.296 222.459 240.657 222.222C239.809 222.186 229.356 221.82 229.378 221.417L226.137 282.167H214.068L215.11 222.279L197.573 228.12L193.902 217.308L214.018 210.605L214.054 203.96Z" fill="#292231"/>
<path id="Path_13" d="M265.665 180.482L265.464 197.724L238.451 199.714C238.451 199.714 239.392 176.775 244.917 173.003L265.665 180.482Z" fill="#48A1DA"/>
<g id="Group_2" opacity="0.73">
<path id="Path_14" d="M229.14 225.613C229.14 225.613 216.496 222.251 211.956 223.041L229.406 217.797L229.14 225.613Z" fill="#1D1A1A"/>
</g>
<g id="Group_3" opacity="0.73">
<path id="Path_15" d="M250.736 217.186C251.72 216.755 252.683 216.295 253.61 215.806C255.873 214.65 258.272 213.457 259.953 211.496C260.604 210.713 261.123 209.83 261.491 208.881C261.599 208.615 262.209 206.668 262.576 206.683C260.895 206.611 258.89 207.473 257.245 207.846C252.24 208.991 247.24 210.143 242.244 211.302C237.388 212.437 232.086 213.895 229.385 217.768C228.975 218.364 229.248 218.386 229.227 219.097C229.205 219.808 228.982 221.202 229.686 221.475C230.078 221.603 230.49 221.652 230.9 221.618C236.125 221.493 241.299 220.572 246.246 218.888C247.783 218.407 249.299 217.796 250.736 217.186Z" fill="#1D1A1A"/>
</g>
<path id="Path_16" d="M262.015 194.283L232.251 200.404C231.055 200.647 229.837 200.77 228.616 200.77H213.917L214.054 205.08L230.347 204.628L262.015 194.283Z" fill="#5A4214"/>
<rect id="Rectangle" width="6.56637" height="3.57055" transform="matrix(-1 0 0 1 239.342 199.197)" fill="#12100B"/>
<rect id="Rectangle_2" width="4.77032" height="2.5935" transform="matrix(-1 0 0 1 238.444 199.685)" fill="#5A4214"/>
<path id="Path_17" d="M193.909 217.308L263.74 193.04C264.595 192.73 265.517 192.653 266.412 192.817C268.237 193.08 269.855 194.131 270.838 195.691C272.856 199.189 270.119 202.027 267.324 203.888C264.53 205.749 261.318 207.02 258.265 208.486C255.104 210.009 252.058 211.69 248.825 213.069C241.145 216.345 233.235 217.962 225.261 220.254L197.609 228.156L193.909 217.308Z" fill="#3A3443"/>
<path id="Path_18" d="M215.038 223.041L222.675 221.259C225.225 220.677 227.74 219.937 230.268 219.269C231.526 218.924 232.797 218.608 234.047 218.22L237.805 217.078C239.048 216.683 240.312 216.324 241.548 215.9L245.255 214.614L247.108 213.96C247.726 213.737 248.33 213.479 248.933 213.242L252.59 211.805C254.982 210.742 257.403 209.736 259.709 208.479C260.284 208.17 260.88 207.897 261.441 207.559L263.136 206.553C264.286 205.921 265.342 205.116 266.434 204.398C267.482 203.607 268.476 202.745 269.408 201.819C270.373 200.924 271.099 199.803 271.52 198.557C271.041 199.769 270.274 200.847 269.286 201.697C268.328 202.578 267.313 203.394 266.247 204.139C265.141 204.858 264.092 205.576 262.928 206.194L261.225 207.15C260.658 207.473 260.061 207.731 259.479 208.026C257.159 209.204 254.752 210.217 252.36 211.252L248.717 212.689C248.107 212.918 247.503 213.163 246.885 213.407L245.039 214.046L241.346 215.354C240.118 215.792 238.868 216.159 237.625 216.561L233.896 217.746C232.646 218.134 231.389 218.465 230.139 218.86C225.132 220.318 220.074 221.611 215.038 223.041Z" fill="#74706F"/>
</g>
<path id="Path_19" d="M230.426 131.313C229.708 131.5 228.034 134.187 227.459 134.905C226.323 136.23 225.291 137.64 224.37 139.122C221.59 143.806 220.491 149.13 218.515 154.144C218.17 155.021 216.64 161.882 216.08 164.835C215.924 165.659 215.295 166.313 214.478 166.501L214.319 166.544C213.359 166.76 212.678 167.615 212.681 168.599V174.785C212.68 175.346 212.901 175.885 213.298 176.283C213.694 176.68 214.232 176.904 214.794 176.904H223.142L234.816 178.154C235.943 178.278 236.966 177.487 237.129 176.365L241.44 147.312C241.493 146.951 241.451 146.582 241.318 146.242L235.779 131.909C235.398 130.925 234.349 130.373 233.322 130.616L230.426 131.313Z" fill="#48A1DA"/>
<path id="Path_20" d="M254.824 129.661C254.824 129.661 247.101 134.74 239.622 128.346L235.599 132.175L233.997 145.61L232.395 170.625L235.355 180.482L254.824 171.983L263.948 135.739L254.824 129.661Z" fill="white"/>
<path id="Path_21" d="M264.214 132.383C267.95 135.135 269.573 140.573 271.068 144.762C272.82 149.697 273.74 154.676 274.746 159.791C274.875 160.431 276.844 170.007 276.262 170.007L267.145 170.244L265.665 180.482L243.236 177.522L245.276 171.983L256.915 140.681L257.633 129.589C259.329 130.243 261.031 130.882 262.727 131.55C263.256 131.763 263.756 132.043 264.214 132.383Z" fill="#48A1DA"/>
<path id="Path_22" d="M237.697 127.275L238.351 128.712L242.007 136.852L254.702 133.023L256.915 125.63L253.222 119.962L252.755 114.028L252.482 110.479L250.636 107.763L234.493 117.993C240.219 120.86 237.697 127.275 237.697 127.275Z" fill="#FBCAA4"/>
<path id="Path_23" d="M237.697 127.276L238.351 128.712C244.393 127.455 250.097 118.712 252.755 114.035L252.482 110.486L250.636 107.77L234.493 118.001C240.219 120.86 237.697 127.276 237.697 127.276Z" fill="#E8AC78"/>
<path id="Path_24" d="M228.53 100.773C228.566 101.19 227.553 101.542 227.265 101.728C225.812 102.715 224.868 104.292 224.686 106.039C224.291 108.374 224.823 111.341 227.653 111.621C227.869 111.621 229.464 111.513 229.435 111.233C229.435 111.226 228.537 100.866 228.53 100.773Z" fill="#FDD385"/>
<path id="Path_25" d="M249.299 110.493C249.236 111.677 249.065 112.853 248.789 114.006C247.999 116.413 246.375 117.871 244.127 118.92C241.562 120.106 238.609 121.492 235.736 121.528C233.688 121.528 232.711 121.234 231.346 119.732C229.662 117.737 228.561 115.315 228.163 112.735C227.201 107.569 227.567 101.182 229.758 96.3403C231.131 93.3158 232.524 90.3056 233.904 87.2882C234.069 86.929 236.296 81.6127 236.483 81.6558L248.696 84.4864L251.57 95.4566L249.299 110.493Z" fill="#FBCAA4"/>
<path id="Path_26" d="M226.856 91.6418C227.574 93.5456 228.48 95.3992 229.32 97.2671C230.714 94.925 232.143 92.4034 234.119 90.4995C236.475 88.06 239.913 86.9924 243.236 87.669C244.296 87.908 245.317 88.2975 246.268 88.8256C246.624 89.0236 246.955 89.2649 247.252 89.544C247.065 89.3644 244.464 91.2251 244.622 91.9005C244.694 92.2309 245.046 92.3962 245.341 92.5183C246.411 92.9422 248.717 93.3301 248.567 94.9035C248.444 96.096 247.022 96.6205 246.929 97.9711C246.954 98.9295 247.297 99.8523 247.906 100.593C248.583 101.594 249.384 102.504 250.291 103.302C250.974 103.933 251.694 104.523 252.446 105.069C252.252 104.925 257.475 99.8821 258.028 99.4582L258.157 99.372C259.191 98.5713 260.283 97.8508 261.426 97.2168C262.231 96.7642 264.099 96.3259 264.3 95.3273C264.367 94.9386 264.34 94.5396 264.221 94.1635C263.402 91.182 260.801 89.4937 258.014 88.5814C257.662 88.4592 257.295 88.3586 256.943 88.2652C255.507 87.8845 254.034 87.6761 252.59 87.396H252.446C252.87 84.9089 252.463 82.3516 251.289 80.1184C250.824 79.2815 250.278 78.4922 249.659 77.7619C248.61 76.5334 246.993 73.6957 245.276 75.6067C243.426 77.6621 241 79.1138 238.315 79.7735C236.952 80.0956 235.561 80.2857 234.162 80.3411C232.783 80.3985 231.109 80.1255 229.852 80.7362C228.731 81.2678 230.908 82.7262 231.289 83.1788C231.813 83.7679 232.804 85.097 231.396 85.2622C230.247 85.3987 229.37 84.2493 228.214 84.5438C227.245 84.848 226.687 85.8615 226.949 86.8428C227.05 87.3169 227.905 89.5943 228.587 89.5943C226.877 89.659 226.08 89.659 226.856 91.6418Z" fill="#1F1B44"/>
<path id="Path_27" d="M235.355 102.131C235.354 102.652 235.286 103.171 235.154 103.675C235.031 104.17 234.86 104.651 234.644 105.112C234.429 105.567 234.172 106 233.875 106.405C233.579 106.815 233.253 107.202 232.898 107.562L232.998 107.49C232.739 107.622 232.51 107.806 232.323 108.029C232.119 108.269 232.011 108.576 232.021 108.891C232.069 109.464 232.362 109.988 232.826 110.328C233.009 110.499 233.212 110.649 233.429 110.773C233.63 110.91 233.842 111.03 234.062 111.133C234.495 111.346 234.942 111.533 235.398 111.693C235.017 111.398 234.601 111.168 234.234 110.86C234.041 110.728 233.856 110.584 233.681 110.429C233.506 110.284 233.34 110.128 233.185 109.962C232.886 109.694 232.697 109.326 232.654 108.927C232.654 108.625 232.955 108.309 233.279 108.144H233.343V108.108C233.725 107.718 234.071 107.295 234.378 106.844C234.671 106.393 234.912 105.911 235.096 105.407C235.278 104.892 235.394 104.356 235.441 103.812C235.513 103.251 235.484 102.681 235.355 102.131Z" fill="#E8AC78"/>
<path id="Shape" fill-rule="evenodd" clip-rule="evenodd" d="M234.579 100.126H222.646C221.949 102.612 221.403 106.283 224.068 107.835C226.311 109.055 228.991 109.172 231.332 108.151C232.514 107.618 233.4 106.59 233.753 105.342C233.896 104.889 234.823 100.126 234.579 100.126ZM230.671 107.339C228.849 108.131 226.764 108.041 225.017 107.095C222.941 105.881 223.364 103.029 223.903 101.118H233.2C233.386 101.118 232.668 104.825 232.553 105.184C232.269 106.142 231.582 106.929 230.671 107.339Z" fill="#E4091D"/>
<path id="Shape_2" fill-rule="evenodd" clip-rule="evenodd" d="M249.206 100.126H237.273C236.576 102.612 236.03 106.283 238.695 107.835C240.938 109.055 243.618 109.172 245.959 108.151C247.141 107.618 248.027 106.59 248.38 105.342C248.523 104.889 249.45 100.126 249.206 100.126ZM245.298 107.339C243.476 108.131 241.391 108.041 239.644 107.095C237.568 105.881 237.991 103.029 238.523 101.118H247.827C248.013 101.118 247.295 104.825 247.18 105.184C246.896 106.142 246.209 106.929 245.298 107.339Z" fill="#E4091D"/>
<path id="Path_28" d="M234.349 102.325H237.955V103.237H233.631V102.325H234.349Z" fill="#E4091D"/>
<path id="Path_29" d="M249.192 100.126H257.116L254.537 100.845L248.588 101.369V100.126H249.192Z" fill="#E4091D"/>
<path id="Path_30" d="M224.011 100.521L228.214 100.996L228.106 102.231L222.703 101.01L224.011 100.521Z" fill="#E4091D"/>
<path id="Path_31" d="M249.299 110.479C249.403 110.662 249.515 110.839 249.637 111.01C251.146 113.101 254.465 113.669 256.821 113.166C258.38 112.905 259.756 112 260.614 110.672C261.471 109.345 261.729 107.718 261.326 106.19C260.974 105.075 260.296 104.091 259.379 103.366C259.3 103.302 257.985 102.44 257.985 102.447C258.163 101.42 258.219 100.376 258.15 99.3361C258.014 95.0256 257.008 88.5598 256.965 88.2006C255.528 87.8198 254.055 87.6115 252.611 87.3313L252.439 87.4103C254.098 89.0771 254.041 101.779 254.041 101.829C253.197 101.99 252.366 102.213 251.555 102.497C250.71 102.87 249.979 103.46 249.436 104.207C248.252 106.117 248.2 108.519 249.299 110.479Z" fill="#FDD385"/>
<path id="Oval_4" d="M255.93 110.486C254.435 110.486 253.222 109.273 253.222 107.778C253.222 106.282 254.435 105.069 255.93 105.069C257.426 105.069 258.639 106.282 258.639 107.778C258.639 109.273 257.426 110.486 255.93 110.486Z" fill="white"/>
<path id="Path_32" d="M254.745 122.318L263.459 131.248C264.033 131.837 264.31 132.652 264.214 133.468L263.962 135.624C263.868 136.343 263.251 136.88 262.525 136.874H258.639C258.442 136.875 258.265 136.993 258.187 137.173C258.109 137.354 258.146 137.563 258.28 137.707L261.347 140.926C262.01 141.643 262.129 142.708 261.642 143.555L245.276 171.954C245.276 171.954 256.943 133.282 254.745 122.318Z" fill="#1D4586"/>
<path id="Path_33" d="M240.283 113.36C239.525 113.766 238.734 114.109 237.92 114.387C237.129 114.661 236.305 114.827 235.47 114.883C234.647 114.937 233.821 114.827 233.042 114.559C232.24 114.266 231.483 113.862 230.793 113.36C231.328 114.083 232.03 114.665 232.84 115.055C233.671 115.449 234.588 115.625 235.506 115.565C236.41 115.504 237.295 115.273 238.114 114.883C238.922 114.509 239.657 113.993 240.283 113.36L240.283 113.36Z" fill="#C68E63"/>
<path id="Oval_5" d="M241.016 105.716C240.214 105.716 239.565 105.066 239.565 104.265C239.565 103.463 240.214 102.813 241.016 102.813C241.817 102.813 242.467 103.463 242.467 104.265C242.467 105.066 241.817 105.716 241.016 105.716Z" fill="#2B2825"/>
<path id="Oval_6" d="M231.411 104.94C230.629 104.94 229.995 104.306 229.995 103.524C229.995 102.743 230.629 102.109 231.411 102.109C232.192 102.109 232.826 102.743 232.826 103.524C232.826 104.306 232.192 104.94 231.411 104.94Z" fill="#2B2825"/>
<path id="Path_34" d="M238.228 123.54C238.343 123.425 234.105 124.007 230.778 130.573C230.556 131.044 230.556 131.589 230.778 132.06L231.777 134.18C231.946 134.531 231.965 134.936 231.83 135.302C231.694 135.668 231.416 135.963 231.059 136.119L228.005 137.556C227.459 137.81 227.15 138.399 227.251 138.993L232.46 169.526L236.547 136.105C236.783 134.195 237.281 132.326 238.027 130.552C238.99 128.245 239.96 124.869 238.228 123.54Z" fill="#1D4586"/>
<path id="Path_35" d="M266.419 171.674C265.912 172.18 265.342 172.619 264.724 172.981C263.251 173.312 261.663 172.407 260.255 172.04C257.196 171.326 254.055 171.024 250.916 171.142C248.696 171.185 246.232 171.695 244.041 171.315C242.798 171.099 241.742 170.266 240.52 169.978C239.119 169.648 237.776 170.366 236.519 170.97C235.056 171.542 233.896 172.694 233.315 174.152C233.315 174.152 236.188 177.206 242.776 175.331C242.776 175.331 250.413 177.773 251.232 177.788C251.519 177.472 254.573 177.917 254.925 177.931C256.06 177.974 256.476 178.873 257.612 178.98C261.8 179.361 275.349 182.005 273.869 173.951L266.419 171.674Z" fill="#FBCAA4"/>
<path id="Path_36" d="M275.371 167.22C276.258 167.858 276.706 168.944 276.528 170.022L275.809 174.54C275.73 174.962 275.467 175.325 275.091 175.532C274.716 175.74 274.268 175.768 273.869 175.611L265.823 172.148C264.704 171.668 263.962 170.585 263.919 169.368L263.862 167.672C263.848 167.339 263.972 167.014 264.204 166.773C264.436 166.533 264.756 166.398 265.09 166.401H272.842C273.75 166.401 274.635 166.687 275.371 167.22Z" fill="#1D4586"/>
<path id="Oval_7" d="M240.614 105.586C240.205 105.586 239.874 105.255 239.874 104.846C239.874 104.438 240.205 104.106 240.614 104.106C241.022 104.106 241.354 104.438 241.354 104.846C241.354 105.255 241.022 105.586 240.614 105.586Z" fill="white"/>
<path id="Oval_8" d="M231.037 104.846C230.628 104.846 230.297 104.515 230.297 104.106C230.297 103.698 230.628 103.366 231.037 103.366C231.446 103.366 231.777 103.698 231.777 104.106C231.777 104.515 231.446 104.846 231.037 104.846Z" fill="white"/>
<path id="Oval_9" d="M255.93 108.683C255.43 108.683 255.025 108.277 255.025 107.778C255.025 107.278 255.43 106.872 255.93 106.872C256.43 106.872 256.836 107.278 256.836 107.778C256.836 108.277 256.43 108.683 255.93 108.683Z" fill="#1D4586"/>
</g>
<path id="Path_37" d="M170.223 179.505L233.566 180.079L231.138 133.813H168.06L170.223 179.505Z" fill="#E7E2F2"/>
<path id="Path_38" d="M168.118 135.056L168.649 145.796L170.33 180.051H232.38L230.003 135.3L168.118 135.056Z" fill="#453C4A"/>
<path id="Oval_10" d="M200.813 161.487C198.305 161.487 196.273 159.454 196.273 156.946C196.273 154.439 198.305 152.406 200.813 152.406C203.321 152.406 205.354 154.439 205.354 156.946C205.354 159.454 203.321 161.487 200.813 161.487Z" fill="white"/>
<path id="Oval_11" d="M198.299 161.487C195.791 161.487 193.758 159.454 193.758 156.946C193.758 154.439 195.791 152.406 198.299 152.406C200.806 152.406 202.839 154.439 202.839 156.946C202.839 159.454 200.806 161.487 198.299 161.487Z" fill="#AFA7C2"/>
<g id="Group_4" opacity="0.32">
<path id="Path_39" d="M168.649 145.825L170.33 180.079H227.747L227.941 180.029C182.357 177.27 169.059 146.773 168.649 145.825Z" fill="#12100B"/>
</g>
<rect id="Rectangle_3" width="26.6031" height="4.10218" transform="matrix(-1 0 0 1 259.917 175.216)" fill="#9890A3"/>
<rect id="Rectangle_4" width="14.7707" height="0.567553" transform="matrix(-1 0 0 1 248.078 174.648)" fill="#E9E9EA"/>
<g id="&#208;&#179;&#208;&#190;&#208;&#180;&#208;&#184;&#208;&#189;&#208;&#189;&#208;&#184;&#208;&#186;">
<path id="Path_40" d="M155.423 0C172.203 2.50034e-07 185.805 13.6025 185.805 30.382C185.805 47.1616 172.203 60.7641 155.423 60.7641H154.92V0.0143684L155.423 0Z" fill="#7F7B8A"/>
<path id="Path_41" d="M125.012 30.382C125.014 13.8009 138.313 0.284942 154.892 0.0143433V60.7497C138.313 60.4791 125.014 46.9631 125.012 30.382Z" fill="#62657A"/>
<path id="Shape_3" fill-rule="evenodd" clip-rule="evenodd" d="M156.228 52.7896V55.6632H155.423V59.1619C171.318 59.1619 184.203 46.2767 184.203 30.382C184.203 14.4873 171.318 1.60205 155.423 1.60205V5.14387H155.797V8.01755H155.423V52.7896H156.228ZM180.654 30.7556H177.78V29.5702H180.654V30.7556ZM177.112 43.3495L177.701 42.3222L175.187 40.8853L174.598 41.9055L177.112 43.3495ZM177.472 18.0826L174.957 19.5195L174.368 18.4993L176.882 17.0625L177.472 18.0826ZM167.708 52.4591L168.728 51.87L167.291 49.3555L166.271 49.9446L167.708 52.4591ZM168.34 8.6785L166.904 11.193L165.883 10.6039L167.32 8.08939L168.34 8.6785Z" fill="#F5F6F9"/>
<path id="Shape_4" fill-rule="evenodd" clip-rule="evenodd" d="M155.423 5.14392V1.6021V1.57336C139.528 1.57336 126.643 14.4586 126.643 30.3533C126.643 46.248 139.528 59.1333 155.423 59.1333V55.6345H155.05V52.7609H155.423V8.0176H154.619V5.14392H155.423ZM144.92 50.1602L143.483 52.6747L142.456 52.0855L143.893 49.5711L144.92 50.1602ZM143.533 11.4085L144.561 10.8194L143.124 8.30497L142.097 8.89407L143.533 11.4085ZM136.45 42.3007L133.935 43.7375L133.339 42.7173L135.861 41.2805L136.45 42.3007ZM135.645 19.9147L136.234 18.8945L133.72 17.4577L133.123 18.4778L135.645 19.9147ZM133.044 30.03V31.2082H130.171V30.03H133.044Z" fill="#EDEDEC"/>
<rect id="Rectangle_5" width="1.19976" height="16.8613" transform="matrix(-1 0 0 1 155.869 12.7664)" fill="#C5B1C1"/>
<rect id="Rectangle_6" width="12.8166" height="1.12074" transform="matrix(-1 0 0 1 155.869 29.6277)" fill="#C5AFBE"/>
<path id="Oval_12" d="M155.416 32.1781C154.424 32.1781 153.62 31.374 153.62 30.3821C153.62 29.3901 154.424 28.586 155.416 28.586C156.408 28.586 157.212 29.3901 157.212 30.3821C157.212 31.374 156.408 32.1781 155.416 32.1781Z" fill="#A04665"/>
</g>
<g id="Group_5" opacity="0.66">
<path id="Path_42" d="M78.8036 188.629L35.6408 302.915H47.2218L88.6747 188.629H78.8036Z" fill="#9B959E"/>
</g>
<rect id="Rectangle_7" width="408.961" height="9.59092" transform="matrix(-1 0 0 1 441.312 179.038)" fill="#302114"/>
<rect id="Rectangle_8" width="408.961" height="2.39953" transform="matrix(-1 0 0 1 441.312 186.229)" fill="#565251"/>
<path id="Path_43" d="M449.624 140.925C449.624 140.925 411.023 194.742 460.4 250.772C460.371 250.736 500.445 179.203 449.624 140.925Z" fill="#222A54"/>
<path id="Path_44" d="M447.957 149.547C447.957 149.547 414.874 123.066 435.248 78.5809C435.248 78.5809 459.646 97.5975 447.957 149.547Z" fill="#222A54"/>
<path id="Path_45" d="M479.841 164.023C479.841 164.023 488.325 107.102 464.675 80.2764L463.568 201.467L479.841 164.023Z" fill="#264B90"/>
<path id="Path_46" d="M463.568 201.467C463.568 201.467 435.586 169.921 447.131 113.216C447.131 113.216 454.373 85.0323 464.675 80.2764L463.568 201.467Z" fill="#48A1DA"/>
<rect id="Rectangle_9" width="58.4004" height="14.2607" transform="matrix(-1 0 0 1 483.461 243.602)" fill="#FBD168"/>
<path id="Path_47" d="M433.035 303.131H475.817L479.841 257.863H428.869L433.035 303.131Z" fill="#F18634"/>
<path id="Path_48" d="M498.405 146.716C498.405 146.716 508.132 177.048 488.217 208.5C488.217 208.5 477.8 223.896 464.675 230.462L498.405 146.716Z" fill="#264B90"/>
<path id="Path_49" d="M498.405 146.716C498.405 146.716 477.8 158.261 466.033 188.593C466.033 188.593 458.784 217.33 464.675 230.477C464.675 230.477 482.786 213.156 498.405 146.716Z" fill="#48A1DA"/>
<path id="Path_50" d="M447.806 205.914C447.806 205.914 451.937 156.343 416.26 138.684C416.26 138.684 403.666 180.439 447.806 205.914Z" fill="#48A1DA"/>
<g id="Group_6" opacity="0.66">
<path id="Path_51" d="M378.414 188.629L335.251 302.915H346.832L388.278 188.629H378.414Z" fill="#9B959E"/>
</g>
<path id="Path_52" d="M160.129 231.619L166.322 232.754C166.543 232.784 166.743 232.901 166.878 233.079C167.012 233.257 167.071 233.481 167.04 233.702C166.868 234.83 166.279 236.806 164.267 237.417C164.09 237.478 163.898 237.478 163.721 237.417L160.215 236.116C159.936 236.016 159.731 235.776 159.676 235.484L159.13 232.61C159.077 232.333 159.165 232.048 159.366 231.849C159.566 231.65 159.852 231.564 160.129 231.619Z" fill="#1F1B44"/>
<path id="Path_53" d="M134.151 246.268L127.031 245.786C127.031 245.786 131.105 235.161 142.786 231.468L134.151 246.268Z" fill="#1F1B44"/>
<path id="Path_54" d="M148.275 291.126L146.12 300.659H149.841C150.502 300.659 151.156 300.738 151.81 300.767C152.224 300.801 152.642 300.784 153.052 300.717C153.771 300.551 153.254 299.955 153.153 299.395C153.069 298.887 153.035 298.372 153.052 297.857C153.096 296.82 153.29 295.794 153.627 294.811C154.332 292.901 155.205 291.057 156.235 289.301C157.725 286.454 158.963 283.483 159.935 280.421C162.347 272.956 163.921 265.245 164.626 257.432C164.741 256.239 164.49 254.22 164.964 253.121L148.275 291.126Z" fill="#1F1B44"/>
<path id="Path_55" d="M95.6865 271.728V277.533C92.3678 276.749 89.7115 274.268 88.7035 271.01C87.9632 268.58 87.5998 266.05 87.6258 263.51C87.5324 260.42 87.6258 257.202 87.4103 254.249C87.3073 252.565 86.9786 250.903 86.4333 249.306C86.2606 248.791 86.0443 248.291 85.7867 247.812C84.6708 245.777 83.2485 243.926 81.5695 242.323C80.2639 241.053 78.8478 239.902 77.338 238.882C73.6943 236.473 69.7931 234.478 65.7068 232.934C64.9884 232.639 64.2053 232.316 63.4366 231.964L63.2785 231.885C59.2913 230.017 55.3759 227.129 56.6044 222.2C57.4522 218.86 60.8072 216.626 63.9898 215.821C64.8374 215.618 65.6999 215.484 66.5689 215.419C72.7617 214.966 78.4947 217.933 82.8052 222.294C84.1656 223.684 85.3857 225.205 86.4476 226.834C87.2096 227.998 87.8866 229.215 88.4736 230.477C89.5621 232.842 90.3907 235.318 90.9449 237.862C91.2395 239.241 91.4838 240.628 91.6634 242.015C91.9718 244.564 92.1469 247.127 92.1878 249.694C92.2381 251.21 92.2525 252.726 92.2525 254.249C92.2525 257.03 92.2956 259.803 92.4177 262.597C92.468 263.646 92.5327 264.709 92.6332 265.758C92.7338 266.807 92.8344 267.849 92.9781 268.898C93.0099 269.893 93.4426 270.834 94.1778 271.506C94.4365 271.678 95.6865 272.555 95.6865 271.728Z" fill="#32357F"/>
<path id="Path_56" d="M82.8052 222.294C65.4122 221.504 63.2498 228.084 63.4078 231.899V231.964L63.2498 231.885C59.2625 230.017 55.3471 227.129 56.5756 222.2C57.4234 218.86 60.7784 216.626 63.961 215.821C64.8086 215.618 65.6711 215.484 66.5401 215.419C72.7616 214.966 78.4946 217.933 82.8052 222.294Z" fill="#2A2760"/>
<path id="Path_57" d="M90.9449 237.862L77.3381 238.882C73.6943 236.473 69.7931 234.478 65.7068 232.934C64.9884 232.639 64.2053 232.316 63.4366 231.964L63.2786 231.885C63.331 231.878 63.3842 231.878 63.4366 231.885C69.6438 232.057 79.7017 231.518 86.4261 226.82C87.188 227.984 87.8651 229.201 88.452 230.462C89.5489 232.831 90.3848 235.312 90.9449 237.862Z" fill="#2A2760"/>
<path id="Path_58" d="M92.1807 249.694L86.4333 249.306C86.2606 248.791 86.0443 248.291 85.7867 247.812C84.6709 245.777 83.2485 243.926 81.5696 242.323L91.6275 242.015C91.9455 244.563 92.1302 247.127 92.1807 249.694Z" fill="#2A2760"/>
<path id="Path_59" d="M92.4105 262.597L87.6258 263.51C87.5324 260.42 87.6258 257.202 87.4103 254.249H92.2453C92.274 257.029 92.2884 259.803 92.4105 262.597Z" fill="#2A2760"/>
<path id="Path_60" d="M95.6865 271.728V277.533C92.3678 276.749 89.7115 274.268 88.7035 271.01L92.626 265.758C92.7051 266.8 92.8272 267.849 92.9709 268.898C93.0027 269.893 93.4354 270.834 94.1707 271.506C94.4365 271.678 95.6865 272.555 95.6865 271.728Z" fill="#2A2760"/>
<path id="Path_61" d="M109.926 291.471C109.926 291.471 108.367 297.627 113.985 300.516C114.177 300.61 114.388 300.659 114.603 300.659H116.866C117.196 300.663 117.493 300.46 117.609 300.151C117.724 299.842 117.634 299.494 117.383 299.28C114.962 297.182 111.147 293.152 113.877 290.429L109.926 291.471Z" fill="#1F1B44"/>
<path id="Path_62" d="M93.4019 276.585C93.4019 276.585 94.185 294.617 104.581 300.659H107.979C108.106 300.657 108.218 300.577 108.263 300.458C108.307 300.339 108.274 300.205 108.18 300.12C107.402 299.377 106.697 298.562 106.075 297.685C104.638 295.731 104.3 293.576 106.075 291.715C108.438 294.035 112.311 295.12 115.414 295.795C118.107 296.358 120.847 296.67 123.597 296.729C124.675 296.729 134.876 296.629 134.876 296.068V300.659H140.042C140.24 300.66 140.428 300.573 140.557 300.422C140.686 300.271 140.742 300.072 140.71 299.876L139.869 294.783C139.869 294.783 145.071 292.318 145.43 292.132C154.884 287.225 159.798 278.482 162.528 268.424C162.873 267.13 163.182 265.828 163.455 264.515C165.215 256.06 167.895 243.157 162.844 235.369C158.441 228.594 149.633 227.294 142.93 231.396C140.007 233.238 137.691 235.899 136.27 239.047C133.497 244.967 133.957 249.752 128.281 254.019C122.182 258.603 116.363 255.499 109.559 256.476C99.4079 257.935 94.7813 267.368 93.4019 276.585Z" fill="#353281"/>
<path id="Oval_13" d="M144.87 235.265C144.58 233.628 146.265 231.961 148.632 231.542C151 231.122 153.154 232.11 153.444 233.747C153.734 235.384 152.05 237.051 149.682 237.47C147.314 237.889 145.16 236.902 144.87 235.265Z" fill="#E5CD6E"/>
<path id="Path_63" d="M155.639 237.546C154.92 238.624 155.2 240.815 155.38 241.813C155.524 242.722 155.863 243.59 156.371 244.357C156.867 245.075 157.564 245.959 158.527 246.16C159.489 246.361 160.682 245.628 160.438 244.493C160.201 243.573 159.145 243.2 158.534 242.582C157.966 241.985 157.677 241.177 157.736 240.355C157.794 239.471 158.541 238.523 158.153 237.639C157.986 237.267 157.648 236.999 157.248 236.921C156.632 236.748 155.976 237.003 155.639 237.546Z" fill="white"/>
<path id="Path_64" d="M138.842 243.423C141.069 243.221 143.26 242.855 145.437 242.453C146.522 242.237 147.592 242.036 148.692 241.785C149.791 241.533 150.847 241.31 151.932 241.066L151.379 239.902C150.66 240.441 149.999 240.987 149.324 241.548C148.649 242.108 147.98 242.668 147.312 243.243C146.644 243.818 145.99 244.4 145.344 244.996C144.697 245.592 144.058 246.196 143.44 246.835C144.209 246.404 144.963 245.937 145.703 245.47C146.443 245.003 147.183 244.515 147.909 244.033C148.634 243.552 149.345 243.035 150.064 242.517C150.782 242 151.501 241.49 152.176 240.966L154.518 239.184L151.644 239.802C150.56 240.032 149.489 240.297 148.411 240.563C147.334 240.829 146.256 241.124 145.2 241.411C143.052 241.971 140.933 242.611 138.842 243.423Z" fill="#12100B"/>
<path id="Path_65" d="M175.618 236.238C174.454 236.346 173.305 236.526 172.148 236.691C170.991 236.856 169.856 237.072 168.714 237.287C166.422 237.711 164.152 238.2 161.889 238.724L159.123 239.371L161.882 240.017C162.924 240.269 163.965 240.535 165.014 240.736C166.063 240.937 167.105 241.203 168.161 241.411C170.266 241.835 172.385 242.223 174.533 242.489C172.514 241.698 170.467 241.052 168.412 240.42C167.385 240.096 166.35 239.816 165.316 239.522C164.281 239.227 163.24 238.976 162.205 238.695V239.996C164.468 239.471 166.724 238.918 168.965 238.293C170.086 237.984 171.207 237.654 172.313 237.316C173.42 236.978 174.526 236.648 175.618 236.238Z" fill="#12100B"/>
<path id="Oval_14" d="M151.486 236.087C150.375 236.087 149.475 235.187 149.475 234.076C149.475 232.965 150.375 232.064 151.486 232.064C152.597 232.064 153.498 232.965 153.498 234.076C153.498 235.187 152.597 236.087 151.486 236.087Z" fill="#12100B"/>
<path id="Oval_15" d="M160.291 237.409C157.924 236.99 156.239 235.323 156.529 233.686C156.819 232.049 158.973 231.062 161.341 231.481C163.708 231.9 165.393 233.567 165.103 235.204C164.813 236.841 162.659 237.828 160.291 237.409Z" fill="#E5CD6E"/>
<path id="Oval_16" d="M163.074 236.885C161.963 236.885 161.063 235.984 161.063 234.873C161.063 233.762 161.963 232.862 163.074 232.862C164.185 232.862 165.086 233.762 165.086 234.873C165.086 235.984 164.185 236.885 163.074 236.885Z" fill="#12100B"/>
<path id="Path_66" d="M398.149 188.629L441.312 302.915H429.731L388.278 188.629H398.149Z" fill="#E6DEF0"/>
<path id="Path_67" d="M98.5387 188.629L141.701 302.915H130.12L88.6748 188.629H98.5387Z" fill="#E6DEF0"/>
<path id="Path_68" d="M94.3789 173.52L92.705 173.822L79.9674 102.871L81.7203 103.007L94.3789 173.52Z" fill="#20273D"/>
<path id="Path_69" d="M82.2951 96.175L81.1169 94.9465L116.959 60.5629L117.914 61.9997L82.2951 96.175Z" fill="#20273D"/>
<path id="Path_70" d="M85.0323 98.9553L83.8541 97.7268L119.696 63.3432L120.652 64.78L85.0323 98.9553Z" fill="#20273D"/>
<path id="Path_71" d="M98.2656 173.52L96.5917 173.822L83.8541 102.871L85.607 103.007L98.2656 173.52Z" fill="#20273D"/>
<path id="Oval_17" d="M82.798 104.157C79.9254 104.157 77.5967 101.828 77.5967 98.9553C77.5967 96.0827 79.9254 93.754 82.798 93.754C85.6707 93.754 87.9994 96.0827 87.9994 98.9553C87.9994 101.828 85.6707 104.157 82.798 104.157Z" fill="#20273D"/>
<path id="Oval_18" d="M82.0221 104.157C79.1495 104.157 76.8208 101.828 76.8208 98.9553C76.8208 96.0827 79.1495 93.754 82.0221 93.754C84.8948 93.754 87.2235 96.0827 87.2235 98.9553C87.2235 101.828 84.8948 104.157 82.0221 104.157Z" fill="#48A1DA"/>
<path id="Oval_19" d="M82.0221 101.448C80.6453 101.448 79.5292 100.332 79.5292 98.9553C79.5292 97.5785 80.6453 96.4624 82.0221 96.4624C83.3989 96.4624 84.515 97.5785 84.515 98.9553C84.515 100.332 83.3989 101.448 82.0221 101.448Z" fill="#233970"/>
<path id="Path_72" d="M121.327 69.6294L126.701 66.1235L121.945 58.6519C121.945 58.6519 121.19 56.6691 118.518 57.251L115.493 59.0039C115.493 59.0039 114.516 61.2598 117.045 63.7886L121.327 69.6294Z" fill="#20273D"/>
<path id="Path_73" d="M121.327 69.6294C121.327 69.6294 115.644 77.4889 122.965 88.3083L143.354 74.996C143.354 74.996 137.456 65.2973 126.701 66.1235L121.327 69.6294Z" fill="#20273D"/>
<path id="Path_74" d="M73.358 179.045C73.358 174.016 82.7694 169.907 94.3862 169.907C106.003 169.907 115.407 173.994 115.407 179.045H73.358Z" fill="#1A2543"/>
<path id="Path_75" d="M105.536 179.038H122.419L123.518 161.968H103.92L105.536 179.038Z" fill="#F18634"/>
<path id="Path_76" d="M112.339 157.938C106.736 158.749 101.067 151.616 99.6809 142.01C98.2943 132.405 101.714 123.956 107.318 123.145L112.339 157.938Z" fill="#1A2543"/>
<path id="Path_77" d="M107.318 123.145C112.921 122.34 118.59 129.474 119.976 139.079C121.363 148.684 117.943 157.133 112.339 157.938L107.318 123.145Z" fill="#204790"/>
<path id="Path_78" d="M102.677 132.003L102.921 132.822L100.579 133.54C100.651 134.16 100.764 134.774 100.917 135.379L102.957 134.769L103.201 135.588L101.146 136.205C101.146 136.328 101.218 136.457 101.254 136.579C101.391 137.003 101.542 137.42 101.707 137.822L106.226 136.457L106.47 137.283L102.037 138.612C102.482 139.611 103.031 140.559 103.675 141.443L107.39 140.329L107.641 141.148L104.236 142.176C106.161 144.453 108.489 145.61 110.515 144.97L103.991 124.402C102.641 124.892 101.585 125.967 101.118 127.326L103.747 126.557L103.991 127.376L100.816 128.332C100.68 128.824 100.584 129.326 100.529 129.833L104.645 128.59L104.897 129.409L100.442 130.745C100.415 131.392 100.427 132.04 100.478 132.685L102.677 132.003Z" fill="#1D4586"/>
<path id="Path_79" d="M113.654 137.089L121.471 116.973C119.984 116.391 118.252 116.815 116.6 117.986L118.949 118.935L118.54 119.933L115.666 118.755C115.302 119.083 114.959 119.433 114.639 119.804L118.389 121.334L117.979 122.333L113.934 120.68C113.59 121.14 113.274 121.62 112.986 122.117L116.004 123.346L115.601 124.352L112.462 123.066C112.196 123.604 111.937 124.158 111.743 124.739C111.716 124.8 111.695 124.862 111.679 124.926L115.407 126.442L114.998 127.448L111.319 125.946C111.124 126.559 110.965 127.183 110.845 127.814L114.064 129.129L113.654 130.135L110.673 128.913C110.141 132.85 111.248 136.155 113.654 137.089Z" fill="#1A2543"/>
<path id="Path_80" d="M113.654 137.089C115.601 137.851 117.965 136.888 119.991 134.812L115.407 132.965L115.781 132.046L120.702 134.021C121.292 133.317 121.817 132.559 122.268 131.758L118.597 130.286L118.971 129.359L122.728 130.868C122.996 130.359 123.236 129.836 123.446 129.301C123.482 129.201 123.525 129.093 123.554 128.993L118.611 127.002L118.985 126.076L123.877 128.051C124.045 127.525 124.184 126.99 124.294 126.449L121.859 125.472L122.225 124.545L124.481 125.451C124.545 124.984 124.589 124.531 124.61 124.079L120.458 122.405L120.824 121.485L124.625 123.008C124.612 122.334 124.538 121.663 124.402 121.004L121.528 119.833L121.902 118.913L124.057 119.79C123.65 118.528 122.721 117.503 121.507 116.973L113.654 137.089Z" fill="#1A2543"/>
<path id="Path_81" d="M103.991 124.402L110.515 144.97C112.498 144.338 113.733 142.096 114.021 139.223L110.429 140.3L110.184 139.481L114.092 138.303C114.12 137.027 113.999 135.751 113.733 134.503L108.532 136.069L108.288 135.25L113.532 133.677C113.453 133.368 113.367 133.073 113.266 132.764C113.223 132.621 113.18 132.484 113.13 132.348L107.519 134.029L107.267 133.217L112.799 131.543C112.5 130.778 112.145 130.036 111.736 129.323L107.49 130.602L107.239 129.783L111.283 128.569C111.078 128.253 110.862 127.951 110.637 127.663L106.369 128.949L106.118 128.123L110.048 126.945C109.506 126.322 108.891 125.767 108.216 125.293L106.061 125.939L105.809 125.12L107.174 124.711C106.189 124.213 105.054 124.103 103.991 124.402Z" fill="#48A1DA"/>
<path id="Path_82" d="M110.22 151.048L114.279 152.133L114.085 152.851L110.328 151.845C110.435 152.473 110.584 153.092 110.773 153.699L114.796 154.769L114.603 155.488L111.082 154.547C111.987 156.817 113.467 158.376 115.393 158.75L120.314 133.605C118.835 133.371 117.325 133.764 116.147 134.69L118.59 135.336L118.396 136.055L115.407 135.257C114.978 135.637 114.579 136.05 114.215 136.493L118.547 137.7L118.353 138.418L113.661 137.168C113.154 137.846 112.707 138.568 112.325 139.323L115.35 140.128L115.156 140.846L111.987 139.999C111.793 140.423 111.607 140.861 111.434 141.321L117.182 142.851L116.988 143.569L111.197 142.032C110.901 142.909 110.661 143.804 110.479 144.712C110.475 144.779 110.475 144.846 110.479 144.913L115.386 146.22L115.192 146.939L110.349 145.646C110.256 146.285 110.184 146.91 110.148 147.528L116.614 149.238L116.42 149.956L110.148 148.282C110.102 149.205 110.126 150.129 110.22 151.048Z" fill="#1D4586"/>
<path id="Path_83" d="M115.364 158.771C117.728 159.231 120.206 157.722 122.124 155.007L116.693 153.57L116.887 152.851L122.577 154.36C122.972 153.739 123.323 153.091 123.626 152.42L119.402 151.292L119.596 150.574L123.906 151.731C124.207 151.009 124.464 150.27 124.675 149.518L118.252 147.794L118.446 147.075L124.912 148.792C124.998 148.426 125.084 148.074 125.156 147.671C125.228 147.269 125.3 146.888 125.35 146.5L120.041 145.064L120.235 144.345L125.444 145.732C125.513 145.138 125.552 144.541 125.558 143.943L121.478 142.858L121.672 142.14L125.558 143.181C125.547 142.561 125.501 141.943 125.422 141.328L119.409 139.719L119.603 139L125.3 140.516C125.172 139.783 124.982 139.062 124.732 138.361L120.422 137.204L120.616 136.486L124.387 137.491C123.468 135.451 122.06 134.065 120.292 133.72L115.364 158.771Z" fill="#48A1DA"/>
<rect id="Rectangle_10" width="23.7654" height="5.14389" transform="matrix(-1 0 0 1 125.551 156.824)" fill="#FBD168"/>
<g id="&#208;&#186;&#209;&#128;&#209;&#131;&#208;&#182;&#208;&#186;&#208;&#176;">
<path id="Path_84" d="M321.084 152.815C320.088 153.73 319.381 154.916 319.051 156.228C318.633 157.607 318.676 159.085 319.173 160.438C319.447 161.046 319.772 161.63 320.143 162.184C320.438 162.626 320.663 163.11 320.811 163.62C321.089 164.796 321.181 166.008 321.084 167.213C321.938 166.126 322.378 164.772 322.327 163.391C322.31 163.021 322.253 162.655 322.154 162.299C322.056 161.95 321.926 161.611 321.766 161.286C321.472 160.675 321.163 160.158 320.976 159.683C320.61 158.648 320.468 157.546 320.559 156.451C320.612 155.224 320.787 154.006 321.084 152.815V152.815Z" fill="white"/>
<path id="Path_85" d="M318.181 156.645C317.158 157.539 316.431 158.725 316.098 160.043C315.745 161.427 315.836 162.887 316.357 164.217C316.488 164.549 316.644 164.871 316.824 165.179C317.018 165.517 317.14 165.682 317.269 165.941C317.534 166.419 317.739 166.928 317.88 167.457C318.153 168.633 318.254 169.843 318.181 171.049C319.467 169.356 319.757 167.107 318.943 165.143C318.627 164.425 318.354 164.008 318.167 163.491C317.765 162.46 317.574 161.358 317.607 160.251C317.665 159.031 317.858 157.822 318.181 156.645Z" fill="white"/>
<rect id="Rectangle_11" width="6.45142" height="13.1399" transform="matrix(-1 0 0 1 324.978 165.431)" fill="#48A1DA"/>
<rect id="Rectangle_12" width="3.70705" height="13.1399" transform="matrix(-1 0 0 1 318.519 165.431)" fill="#1D4586"/>
<path id="Path_86" d="M314.812 166.717V168.154C313.196 168.154 311.888 169.26 311.888 170.625C311.888 171.99 313.196 173.096 314.812 173.096V174.533C312.233 174.533 310.142 172.766 310.142 170.596C310.142 168.427 312.233 166.717 314.812 166.717Z" fill="#1D4586"/>
<rect id="Rectangle_13" width="16.6171" height="0.639395" transform="matrix(-1 0 0 1 327.514 178.571)" fill="#1F1F1D"/>
</g>
<path id="Path_87" fill-rule="evenodd" clip-rule="evenodd" d="M371.222 169.777C368.521 169.777 366.028 171.71 365.195 175.374C365.195 175.46 365.238 175.46 365.274 175.482C365.563 175.648 365.726 175.969 365.691 176.301H367.005C367.005 176.301 367.386 176.178 367.465 175.92C367.643 175.026 367.917 174.154 368.284 173.319C368.953 172.058 370.235 171.24 371.661 171.164C373.442 171.164 374.57 172.522 375.763 174.282C376.086 174.756 376.395 175 376.417 175.18C376.438 175.359 376.532 175.295 376.568 175.28C376.679 175.237 376.741 175.117 376.711 175C376.647 174.821 376.352 173.915 376.251 173.657C376.103 173.19 376.007 172.708 375.964 172.22C375.91 171.755 375.748 171.31 375.49 170.92C375.35 170.763 375.179 170.638 374.987 170.553C373.796 170.046 372.517 169.782 371.222 169.777V169.777Z" fill="#F7BEC1"/>
<path id="Path_88" fill-rule="evenodd" clip-rule="evenodd" d="M372.738 169.907C371.716 169.457 370.639 169.145 369.534 168.98C368.28 168.775 367.012 168.667 365.741 168.657C365.545 168.499 365.378 168.309 365.245 168.096C365.152 167.924 365.245 167.658 365.36 167.342L366.912 167.464C368.72 167.547 370.501 167.928 372.185 168.592C373.064 168.949 373.866 169.471 374.549 170.129C374.667 170.249 374.776 170.379 374.872 170.517C374.187 170.232 373.471 170.027 372.738 169.907Z" fill="#F7BEC1"/>
<path id="Path_89" fill-rule="evenodd" clip-rule="evenodd" d="M339.224 173.254C339.612 172.723 340.453 170.718 341.631 170.259L342.155 170.057C342.81 169.833 343.491 169.693 344.181 169.641C345.498 169.489 346.828 169.774 347.967 170.453C348.829 171.085 350.245 172.292 350.51 175.481C350.506 175.562 350.491 175.642 350.467 175.719C350.431 175.812 350.288 176.027 350.467 176.2C350.503 176.25 350.467 176.279 350.467 176.286C350.218 176.355 349.955 176.355 349.706 176.286C349.39 176.171 349.325 175.711 349.268 175.402C349.181 174.799 349.009 174.212 348.758 173.657C348.037 172.35 346.657 171.545 345.165 171.559C342.716 171.559 341.854 173.226 341.257 174.217C340.661 175.208 339.763 175.898 337.766 175.877H337.414C337.852 175.115 338.843 173.779 339.224 173.254Z" fill="#F7BEC1"/>
<path id="Shape_5" fill-rule="evenodd" clip-rule="evenodd" d="M342.191 170C343.096 168.949 344.07 167.96 345.108 167.04C346.449 165.881 348.014 165.011 349.706 164.482C351.288 164.051 352.922 163.838 354.562 163.85L354.641 175.467H350.503C350.237 172.299 348.822 171.092 347.96 170.438C346.821 169.76 345.491 169.474 344.174 169.626C343.484 169.678 342.803 169.818 342.148 170.043L342.191 169.978V170ZM346.595 167.672C346.696 167.909 346.875 168.391 347.816 168.391C348.757 168.391 353.391 168.29 353.7 168.29C353.851 168.307 354.001 168.258 354.114 168.156C354.226 168.055 354.29 167.91 354.289 167.758V164.791C354.288 164.625 354.217 164.467 354.095 164.356C353.972 164.244 353.808 164.188 353.643 164.202C352.165 164.209 350.698 164.452 349.296 164.921C347.472 165.589 347.012 166.264 346.775 166.595C346.543 166.903 346.476 167.305 346.595 167.672Z" fill="#F7BEC1"/>
<path id="Path_90" fill-rule="evenodd" clip-rule="evenodd" d="M364.196 167.644L364.462 167.464C364.462 167.464 364.62 167.399 364.836 167.284L365.296 167.335C365.202 167.538 365.148 167.758 365.137 167.981C365.259 168.263 365.449 168.51 365.691 168.7C366.892 168.738 368.091 168.838 369.283 169.001C370.331 169.159 371.358 169.436 372.343 169.828C371.976 169.781 371.607 169.757 371.237 169.756C368.536 169.756 366.043 171.681 365.217 175.338H364.886C364.886 175.338 364.936 170.776 364.972 168.707C364.965 168.728 364.426 167.996 364.196 167.644Z" fill="#F7BEC1"/>
<path id="Path_91" fill-rule="evenodd" clip-rule="evenodd" d="M341.257 168.649L340.338 169.547C340.216 169.662 340.287 169.907 340.287 169.907L340.611 170.043L341.293 169.749L341.516 169.102L341.257 168.649Z" fill="#4C1C15"/>
<path id="Path_92" fill-rule="evenodd" clip-rule="evenodd" d="M341.947 168.046L341.76 168.197L341.853 168.786L342.126 169.26L339.634 170.56L339.037 172.658L338.577 173.987L339.152 174.311L342.313 170.309L343.111 170.158L342.644 169.188L342.55 168.491L341.947 168.046Z" fill="#DE6C10"/>
<path id="Path_93" fill-rule="evenodd" clip-rule="evenodd" d="M366.977 176.171C367.338 176.696 367.868 177.081 368.478 177.263C369.513 177.579 373.191 177.206 373.191 177.206L374.779 175.41C374.984 175.383 375.191 175.383 375.397 175.41C375.519 175.46 376.165 174.619 376.165 174.619L374.973 172.78L373.845 171.473L371.28 170.754L369.182 171.308L367.745 173.254L366.855 175.374L366.977 176.171Z" fill="#7D2F2D"/>
<path id="Path_94" fill-rule="evenodd" clip-rule="evenodd" d="M349.576 176.027C349.576 176.027 349.253 176.487 349.117 176.631C348.933 176.843 348.708 177.017 348.456 177.141C348.132 177.285 342.198 175.992 342.198 175.992C341.099 175.992 341.085 175.992 339.971 175.905C339.562 175.905 337.73 175.79 337.73 175.79L338.815 175.51L340.014 175L341.092 173.621L341.882 172.73L343.319 171.595L344.526 171.2L346.538 171.53L347.716 171.968L348.829 173.161L349.497 174.361L349.648 175.647L349.576 176.027Z" fill="#7D2F2D"/>
<path id="Path_95" fill-rule="evenodd" clip-rule="evenodd" d="M364.929 175.302H365.339L365.683 175.755L365.741 176.243C365.675 176.298 365.596 176.335 365.511 176.351C361.143 176.351 350.352 176.222 350.352 176.222L350.281 175.798L350.403 175.589V175.352L350.762 175.201L355.367 175.029L359.979 174.813L364.426 175.187L364.699 175.259V175.302H364.929Z" fill="#E26F0D"/>
<path id="Path_96" fill-rule="evenodd" clip-rule="evenodd" d="M365.051 174.943L364.972 175.51L350.273 175.517L349.174 172.493L341.703 169.612L346.775 165.136L348.255 164.432L349.591 164.123L352.048 163.721L353.88 163.261L354.649 163.541L359.498 163.692L361.869 164.317L362.767 164.978L364.534 167.773L365.231 168.786L365.36 172.809L365.051 174.943Z" fill="#DE6C10"/>
<path id="Path_97" fill-rule="evenodd" clip-rule="evenodd" d="M337.414 174.821C337.351 175.099 337.327 175.384 337.342 175.668C337.384 175.753 337.47 175.809 337.565 175.812L338.175 174.971L337.414 174.821Z" fill="url(#paint0_linear)"/>
<path id="Path_98" fill-rule="evenodd" clip-rule="evenodd" d="M365.396 167.378L365.245 167.924L365.762 168.578L367.853 168.671L370.569 169.03L372.868 169.849L372.753 169.993L372.243 169.943L370.051 169.267L367.106 168.93L365.597 168.822L365.037 168.211L365.051 167.651L365.216 167.363L365.396 167.378Z" fill="#DE6C10"/>
<path id="Shape_6" fill-rule="evenodd" clip-rule="evenodd" d="M355.489 164.296C355.355 164.28 355.22 164.326 355.124 164.421C355.027 164.516 354.979 164.65 354.993 164.784V167.794C354.978 167.965 355.066 168.129 355.216 168.211C355.213 168.199 355.213 168.187 355.216 168.175V165.251C355.196 165.127 355.234 165 355.32 164.907C355.405 164.815 355.529 164.767 355.654 164.777C355.891 164.777 357.853 164.777 358.708 164.856C359.52 164.925 360.319 165.112 361.078 165.409C361.471 165.588 361.789 165.898 361.976 166.286C362.07 166.458 362.602 167.414 362.695 167.593C362.78 167.745 362.827 167.915 362.831 168.089C362.838 168.144 362.838 168.199 362.831 168.254H363.155C363.306 168.27 363.456 168.217 363.563 168.11C363.671 168.002 363.724 167.852 363.708 167.701C363.701 167.52 363.647 167.344 363.55 167.191C363.456 167.011 362.831 166.027 362.738 165.848C362.512 165.436 362.148 165.118 361.711 164.949C360.839 164.641 359.931 164.451 359.009 164.382C358.032 164.281 355.791 164.296 355.518 164.296H355.489ZM355.324 168.261H355.468H355.324Z" fill="#17130F"/>
<path id="Shape_7" fill-rule="evenodd" clip-rule="evenodd" d="M346.775 166.638C347.012 166.307 347.493 165.632 349.296 164.964C350.698 164.495 352.165 164.252 353.643 164.245C353.808 164.231 353.972 164.287 354.095 164.399C354.217 164.511 354.288 164.669 354.289 164.835V167.802C354.29 167.953 354.226 168.098 354.114 168.199C354.001 168.301 353.851 168.35 353.7 168.333C353.391 168.333 348.765 168.441 347.816 168.434C346.868 168.427 346.696 167.945 346.595 167.715C346.491 167.361 346.557 166.979 346.775 166.681V166.638ZM348.017 167.636C348.104 167.838 348.247 168.118 349.059 168.132C349.778 168.132 352.896 168.06 353.909 168.039C354.005 167.965 354.063 167.851 354.067 167.73C354.067 167.73 354.067 166.81 354.067 166.257V164.82C352.807 164.832 351.557 165.035 350.36 165.424C348.786 165.962 348.391 166.508 348.204 166.781C348.008 167.019 347.938 167.338 348.017 167.636Z" fill="#17130F"/>
<path id="Path_99" fill-rule="evenodd" clip-rule="evenodd" d="M346.595 164.468C346.638 164.692 346.541 164.919 346.351 165.043C346.028 165.323 344.504 166.702 344.152 167.004C343.912 167.236 343.647 167.441 343.362 167.615C343.262 167.615 343.06 167.723 342.931 167.615C342.812 167.509 342.721 167.376 342.665 167.227C343.334 166.589 344.055 166.007 344.821 165.488L346.566 164.389C346.574 164.411 346.595 164.439 346.595 164.468Z" fill="#484444"/>
<path id="Path_100" fill-rule="evenodd" clip-rule="evenodd" d="M374.894 175.568C374.894 173.679 373.363 172.148 371.474 172.148C369.585 172.148 368.054 173.679 368.054 175.568C368.054 177.456 369.585 178.987 371.474 178.987C373.363 178.987 374.894 177.456 374.894 175.568Z" fill="#3E3B3A"/>
<path id="Path_101" fill-rule="evenodd" clip-rule="evenodd" d="M374.305 175.568C374.305 173.981 373.018 172.694 371.431 172.694C369.844 172.694 368.557 173.981 368.557 175.568C368.557 177.155 369.844 178.441 371.431 178.441C373.018 178.441 374.305 177.155 374.305 175.568Z" fill="#E8E8EA"/>
<path id="Path_102" fill-rule="evenodd" clip-rule="evenodd" d="M373.773 175.568C373.773 174.298 372.744 173.269 371.474 173.269C370.204 173.269 369.175 174.298 369.175 175.568C369.175 176.837 370.204 177.867 371.474 177.867C372.084 177.867 372.668 177.624 373.1 177.193C373.531 176.762 373.773 176.177 373.773 175.568Z" fill="#717075"/>
<path id="Path_103" fill-rule="evenodd" clip-rule="evenodd" d="M373.234 175.568C373.234 174.596 372.446 173.808 371.474 173.808C370.502 173.808 369.714 174.596 369.714 175.568C369.714 176.54 370.502 177.328 371.474 177.328C372.446 177.328 373.234 176.54 373.234 175.568Z" fill="#3E3B3A"/>
<path id="Path_104" fill-rule="evenodd" clip-rule="evenodd" d="M372.825 175.568C372.825 174.822 372.22 174.217 371.474 174.217C370.728 174.217 370.123 174.822 370.123 175.568C370.123 176.314 370.728 176.918 371.474 176.918C372.22 176.918 372.825 176.314 372.825 175.568Z" fill="#929399"/>
<path id="Path_105" fill-rule="evenodd" clip-rule="evenodd" d="M348.75 175.733C348.75 173.844 347.219 172.313 345.331 172.313C343.442 172.313 341.911 173.844 341.911 175.733C341.911 177.622 343.442 179.153 345.331 179.153C347.219 179.153 348.75 177.622 348.75 175.733H348.75Z" fill="#3E3B3A"/>
<path id="Path_106" fill-rule="evenodd" clip-rule="evenodd" d="M348.176 175.733C348.176 174.146 346.889 172.859 345.302 172.859C343.715 172.859 342.428 174.146 342.428 175.733C342.428 177.32 343.715 178.607 345.302 178.607C346.889 178.607 348.176 177.32 348.176 175.733Z" fill="#E8E8EA"/>
<path id="Path_107" fill-rule="evenodd" clip-rule="evenodd" d="M347.63 175.733C347.63 174.803 347.07 173.965 346.21 173.609C345.351 173.253 344.363 173.45 343.705 174.107C343.048 174.765 342.851 175.754 343.207 176.613C343.563 177.472 344.401 178.032 345.331 178.032C346.6 178.032 347.63 177.003 347.63 175.733H347.63Z" fill="#717075"/>
<path id="Path_108" fill-rule="evenodd" clip-rule="evenodd" d="M347.091 175.733C347.091 174.761 346.303 173.973 345.331 173.973C344.359 173.973 343.571 174.761 343.571 175.733C343.571 176.705 344.359 177.493 345.331 177.493C346.303 177.493 347.091 176.705 347.091 175.733Z" fill="#3E3B3A"/>
<path id="Path_109" fill-rule="evenodd" clip-rule="evenodd" d="M346.681 175.733C346.681 174.987 346.077 174.382 345.331 174.382C344.585 174.382 343.98 174.987 343.98 175.733C343.98 176.479 344.585 177.084 345.331 177.084C346.077 177.084 346.681 176.479 346.681 175.733Z" fill="#929399"/>
<path id="Path_110" fill-rule="evenodd" clip-rule="evenodd" d="M375.964 172.874C375.822 172.81 375.675 172.755 375.526 172.708C375.526 172.392 375.67 171.135 375.49 170.934C375.641 170.991 376.079 170.999 376.151 171.034C376.417 171.157 376.273 172.22 376.287 172.471C376.251 172.457 376.014 172.938 375.964 172.874Z" fill="#F7BEC1"/>
<path id="Path_111" fill-rule="evenodd" clip-rule="evenodd" d="M364.196 167.644L364.462 167.464C364.462 167.464 364.074 167.292 364.29 167.169C364.29 167.169 365.008 167.306 365.296 167.335C365.202 167.538 365.148 167.758 365.137 167.981C365.259 168.263 365.449 168.51 365.691 168.7C366.892 168.738 368.091 168.838 369.283 169.001C370.331 169.159 371.358 169.436 372.343 169.828C371.976 169.781 371.607 169.757 371.237 169.756C368.536 169.756 366.043 171.681 365.217 175.338H364.886C364.886 175.338 364.936 170.776 364.972 168.707C364.965 168.728 364.426 167.996 364.196 167.644Z" fill="#F1880A"/>
<path id="Path_112" fill-rule="evenodd" clip-rule="evenodd" d="M346.775 166.638C347.012 166.307 347.493 165.632 349.296 164.964C350.698 164.495 352.165 164.252 353.643 164.245C353.808 164.231 353.972 164.287 354.095 164.399C354.217 164.511 354.288 164.669 354.289 164.835V167.802C354.29 167.953 354.226 168.098 354.114 168.199C354.001 168.301 353.851 168.35 353.7 168.333C353.391 168.333 348.765 168.441 347.816 168.434C346.868 168.427 346.696 167.945 346.595 167.715C346.476 167.348 346.543 166.946 346.775 166.638Z" fill="#42AADF"/>
<path id="Shape_8" fill-rule="evenodd" clip-rule="evenodd" d="M342.241 168.944C342.058 168.685 341.928 168.392 341.861 168.082C341.861 168.082 342.464 167.363 342.644 167.184C342.698 167.355 342.797 167.509 342.931 167.629C343.06 167.751 343.262 167.672 343.362 167.629C343.647 167.455 343.912 167.251 344.152 167.019C344.504 166.717 346.028 165.337 346.351 165.057C346.541 164.933 346.638 164.706 346.595 164.483C346.595 164.432 346.53 164.36 346.631 164.303C349.296 162.866 358.334 162.219 361.1 163.455C362.178 163.983 363.039 164.869 363.535 165.962C363.679 166.228 364.319 167.241 364.469 167.471L364.362 167.543C364.699 168.089 365.08 168.621 365.08 168.621L365.044 175.367L354.677 175.41H350.539C350.273 172.241 348.865 171.099 348.003 170.467C346.864 169.788 345.534 169.503 344.217 169.655C343.527 169.707 342.846 169.847 342.191 170.072L342.234 170.007C342.953 169.159 343.772 168.333 344.39 167.737C343.632 168.465 342.912 169.233 342.234 170.036C342.456 169.704 342.483 169.28 342.306 168.922L342.241 168.944ZM351.717 164.087L351.48 164.123L351.717 164.087ZM350.18 164.396L349.993 164.439L350.18 164.396Z" fill="#F1880A"/>
<path id="Path_113" fill-rule="evenodd" clip-rule="evenodd" d="M354.993 164.784C354.979 164.65 355.027 164.516 355.124 164.421C355.22 164.326 355.355 164.28 355.489 164.296C355.762 164.296 358.004 164.296 358.981 164.382C359.902 164.451 360.811 164.641 361.682 164.949C362.119 165.118 362.483 165.436 362.709 165.848C362.817 166.027 363.428 167.011 363.521 167.191C363.618 167.344 363.672 167.52 363.679 167.701C363.695 167.852 363.642 168.002 363.535 168.11C363.427 168.217 363.277 168.27 363.126 168.254H355.525C355.387 168.264 355.252 168.216 355.151 168.122C355.05 168.028 354.993 167.896 354.993 167.759V164.784Z" fill="#42AADF"/>
<path id="Path_114" fill-rule="evenodd" clip-rule="evenodd" d="M372.243 169.95C371.308 169.562 370.319 169.32 369.311 169.231C368.091 168.981 366.85 168.836 365.604 168.8C365.368 168.59 365.163 168.349 364.994 168.082C364.893 167.909 364.994 167.644 365.116 167.327L366.704 167.45C368.556 167.532 370.382 167.913 372.113 168.578C373.013 168.931 373.837 169.453 374.542 170.115C374.662 170.235 374.772 170.365 374.872 170.503C374.009 170.258 373.131 170.073 372.243 169.95Z" fill="#F1880A"/>
<path id="Path_115" fill-rule="evenodd" clip-rule="evenodd" d="M374.987 170.568C375.179 170.653 375.35 170.778 375.49 170.934C375.748 171.324 375.91 171.77 375.964 172.234C376.007 172.722 376.103 173.204 376.251 173.671C376.352 173.93 376.647 174.835 376.711 175.015C376.741 175.131 376.679 175.251 376.568 175.295C376.568 175.295 376.46 175.331 376.417 175.194C376.374 175.058 376.086 174.77 375.763 174.296C374.57 172.536 373.442 171.178 371.661 171.178C370.235 171.254 368.953 172.072 368.284 173.333C367.917 174.168 367.643 175.04 367.465 175.934C367.386 176.193 367.005 176.315 367.005 176.315H365.683C365.719 175.983 365.556 175.662 365.267 175.496C365.231 175.496 365.202 175.496 365.188 175.388C366.021 171.724 368.514 169.792 371.215 169.792C372.512 169.796 373.794 170.059 374.987 170.568Z" fill="#E26F0D"/>
<path id="Path_116" fill-rule="evenodd" clip-rule="evenodd" d="M339.224 173.254L338.671 174.016L338.161 173.887C338.513 173.7 338.786 170.295 341.832 168.067C341.841 168.264 341.888 168.456 341.968 168.635C342.083 168.822 342.205 169.037 342.249 169.124C342.292 169.21 342.385 169.461 342.076 170.086C340.539 170.848 340.251 171.818 339.224 173.254Z" fill="#E26F0D"/>
<path id="Path_117" fill-rule="evenodd" clip-rule="evenodd" d="M336.947 175.79H338.441C338.585 175.798 338.726 175.748 338.833 175.651C338.94 175.553 339.003 175.417 339.009 175.273V174.368C339.003 174.224 338.94 174.088 338.833 173.99C338.726 173.893 338.585 173.843 338.441 173.851H336.947C336.804 173.845 336.664 173.896 336.559 173.993C336.454 174.09 336.392 174.225 336.386 174.368V175.273C336.392 175.416 336.454 175.551 336.559 175.648C336.664 175.745 336.804 175.796 336.947 175.79Z" fill="white"/>
<path id="Path_118" fill-rule="evenodd" clip-rule="evenodd" d="M372.236 175.568C372.236 175.147 371.895 174.806 371.474 174.806C371.053 174.806 370.713 175.147 370.713 175.568C370.713 175.988 371.053 176.329 371.474 176.329C371.677 176.331 371.871 176.252 372.015 176.108C372.158 175.965 372.237 175.77 372.236 175.568Z" fill="#E8E9EB"/>
<path id="Path_119" fill-rule="evenodd" clip-rule="evenodd" d="M346.092 175.733C346.095 175.421 345.909 175.138 345.621 175.017C345.333 174.896 345.001 174.961 344.78 175.182C344.559 175.403 344.494 175.735 344.615 176.023C344.735 176.311 345.018 176.497 345.331 176.495C345.533 176.495 345.726 176.414 345.869 176.271C346.012 176.129 346.092 175.935 346.092 175.733Z" fill="#E8E9EB"/>
<path id="Path_120" fill-rule="evenodd" clip-rule="evenodd" d="M356.919 169.389C356.645 169.327 356.366 169.293 356.085 169.289C355.496 169.289 355.137 169.246 354.95 169.253C354.9 169.253 354.879 169.253 354.879 169.332C354.879 169.411 354.879 169.504 354.879 169.533C354.879 169.562 354.879 169.576 354.95 169.576C355.022 169.576 355.884 169.49 356.294 169.497C356.703 169.504 356.869 169.497 356.904 169.497C356.94 169.497 356.991 169.418 356.919 169.389Z" fill="#762A26"/>
<path id="Path_121" fill-rule="evenodd" clip-rule="evenodd" d="M339.49 172.823C339.44 172.723 339.41 172.613 339.404 172.5C339.404 172.277 339.404 171.422 339.404 171.422C339.436 171.233 339.502 171.051 339.598 170.884C339.644 170.79 339.732 170.723 339.835 170.704C340.059 170.68 340.284 170.668 340.51 170.668C340.675 170.668 340.876 170.668 341.013 170.668C340.395 171.302 339.881 172.029 339.49 172.823Z" fill="#DFE2E4"/>
<path id="Path_122" fill-rule="evenodd" clip-rule="evenodd" d="M339.425 171.365C339.464 171.196 339.527 171.034 339.612 170.884C339.658 170.79 339.746 170.723 339.849 170.704C340.073 170.68 340.299 170.668 340.524 170.668C340.69 170.668 340.891 170.668 341.027 170.668C340.781 170.883 340.56 171.124 340.366 171.387C340.139 171.706 339.928 172.037 339.734 172.378H339.397C339.397 172.069 339.397 171.408 339.397 171.408C339.397 171.408 339.425 171.387 339.425 171.365Z" fill="#E31119"/>
<rect id="Rectangle_14" width="2.64379" height="2.14089" rx="0.79" transform="matrix(-1 0 0 1 377.573 173.269)" fill="#EDEDEF"/>
<path id="Path_123" fill-rule="evenodd" clip-rule="evenodd" d="M355.216 168.225C355.066 168.143 354.978 167.98 354.993 167.809V164.799C354.979 164.664 355.027 164.53 355.124 164.435C355.22 164.34 355.355 164.294 355.489 164.31C355.762 164.31 358.004 164.31 358.981 164.396C359.902 164.465 360.811 164.656 361.682 164.964C362.119 165.133 362.483 165.451 362.709 165.862C362.817 166.041 363.428 167.026 363.521 167.205C363.618 167.358 363.672 167.534 363.679 167.715C363.695 167.866 363.642 168.017 363.535 168.124C363.427 168.232 363.277 168.285 363.126 168.269H362.81H355.532C355.433 168.27 355.334 168.248 355.245 168.204L355.216 168.225Z" fill="#484444"/>
<path id="Path_124" fill-rule="evenodd" clip-rule="evenodd" d="M354.289 164.799V167.766C354.29 167.917 354.226 168.062 354.114 168.163C354.001 168.265 353.851 168.314 353.7 168.297C353.391 168.297 348.765 168.405 347.816 168.398C346.868 168.391 346.696 167.909 346.595 167.679C346.491 167.325 346.557 166.943 346.775 166.645C347.012 166.314 347.493 165.639 349.296 164.971C350.698 164.502 352.165 164.26 353.643 164.253C353.801 164.239 353.958 164.289 354.08 164.391C354.201 164.494 354.277 164.64 354.289 164.799Z" fill="#484444"/>
<path id="Path_125" fill-rule="evenodd" clip-rule="evenodd" d="M363.471 168.549C363.918 168.453 364.237 168.058 364.237 167.6C364.237 167.143 363.918 166.748 363.471 166.652V168.549Z" fill="#59575A"/>
<path id="Path_126" fill-rule="evenodd" clip-rule="evenodd" d="M339.267 173.254C340.769 171.2 341.279 169.871 344.174 169.662C345.443 169.502 346.728 169.781 347.816 170.453C349.449 171.598 350.394 173.488 350.331 175.482H350.489C350.453 175.568 350.295 175.977 350.489 176.15C350.525 176.2 350.489 176.229 350.489 176.236C350.24 176.304 349.977 176.304 349.727 176.236C349.411 176.121 349.347 175.661 349.289 175.352C349.202 174.749 349.031 174.161 348.779 173.606C348.058 172.3 346.679 171.495 345.187 171.509C342.737 171.509 341.875 173.175 341.279 174.167C340.682 175.158 339.784 175.848 337.787 175.826H337.435C337.938 174.971 338.657 174.117 339.267 173.254Z" fill="#E26F0D"/>
</g>
<defs>
<linearGradient id="paint0_linear" x1="338.565" y1="174.354" x2="338.565" y2="176.279" gradientUnits="userSpaceOnUse">
<stop stop-color="#534151"/>
<stop offset="0.23" stop-color="#4B4D64"/>
<stop offset="1" stop-color="#4A597B"/>
</linearGradient>
</defs>
</svg>
